<svg width="15" height="14" viewBox="0 0 15 14" fill="none" xmlns="http://www.w3.org/2000/svg">
<path d="M2.66667 5.33333V13.3333H0V5.33333H2.66667ZM5.33333 13.3333C4.97971 13.3333 4.64057 13.1929 4.39052 12.9428C4.14048 12.6928 4 12.3536 4 12V5.33333C4 4.96667 4.14667 4.63333 4.39333 4.39333L8.78 0L9.48667 0.706667C9.66667 0.886667 9.78 1.13333 9.78 1.40667L9.76 1.62L9.12667 4.66667H13.3333C13.687 4.66667 14.0261 4.80714 14.2761 5.05719C14.5262 5.30724 14.6667 5.64638 14.6667 6V7.33333C14.6667 7.50667 14.6333 7.66667 14.5733 7.82L12.56 12.52C12.36 13 11.8867 13.3333 11.3333 13.3333H5.33333ZM5.33333 12H11.3533L13.3333 7.33333V6H7.47333L8.22667 2.45333L5.33333 5.35333V12Z" fill="#666EA8"/>
</svg>
